<svg width="120" height="120" viewBox="0 0 120 120" fill="none" xmlns="http://www.w3.org/2000/svg">
<rect width="120" height="120" rx="22.6772" fill="url(#paint0_linear_3137_1025)"/>
<path opacity="0.5" d="M42.8843 28.7839C43.587 27.7424 44.7612 27.1182 46.0175 27.1182H77.3511C80.3792 27.1182 82.1778 30.5013 80.4842 33.0115L55.8436 69.5337C55.141 70.5752 53.9668 71.1994 52.7105 71.1994H21.3769C18.3488 71.1994 16.5502 67.8163 18.2438 65.306L42.8843 28.7839Z" fill="#DA4BDD"/>
<path d="M47.7889 75.2848C46.5326 75.2848 45.3584 75.909 44.6558 76.9505L38.2365 86.4652C36.5429 88.9755 38.3415 92.3586 41.3696 92.3586H74.6221C75.8784 92.3586 77.0526 91.7344 77.7552 90.6929L102.396 54.1707C104.089 51.6604 102.291 48.2773 99.2626 48.2773H77.1088C75.8525 48.2773 74.6783 48.9016 73.9756 49.943L58.0019 73.6191C57.2993 74.6605 56.1251 75.2848 54.8688 75.2848H47.7889Z" fill="#DA4BDD"/>
<defs>
<linearGradient id="paint0_linear_3137_1025" x1="0" y1="0" x2="139.111" y2="29.3162" gradientUnits="userSpaceOnUse">
<stop stop-color="#0F0F0F"/>
<stop offset="1" stop-color="#2D2D2D"/>
</linearGradient>
</defs>
</svg>